#N canvas 546 196 1370 729 10;
#X obj 161 425 multi-tap-delay~;
#X obj 146 194 nui-knbs;
#X obj 379 165 nui-btns;
#X obj 397 234 nui-EKG;
#X obj 101 127 r~ inR;
#X obj 142 586 throw~ outL;
#X obj 265 587 throw~ outR;
#X obj 16 126 r~ inL;
#X text 143 176 LD1 LD2 RD1 RD2;
#X text 250 170 fdbk bpm wet mixLR;
#X obj 176 527 s leftmon;
#X obj 281 523 s rightmon;
#X obj 177 502 env~ 32 16;
#X obj 281 498 env~ 32 16;
#X connect 0 0 5 0;
#X connect 0 0 12 0;
#X connect 0 1 6 0;
#X connect 0 1 13 0;
#X connect 1 0 0 2;
#X connect 1 1 0 3;
#X connect 1 2 0 4;
#X connect 1 3 0 5;
#X connect 1 4 0 6;
#X connect 1 5 0 7;
#X connect 1 6 0 8;
#X connect 1 7 0 9;
#X connect 4 0 0 1;
#X connect 7 0 0 0;
#X connect 12 0 10 0;
#X connect 13 0 11 0;
