#N canvas 384 153 1304 859 12;
#X obj 215 275 multi-clock 1;
#X text 34 1115 <1> Open preset 1 and click the 'start' toggle in 'multi-clock'.
;
#X text 29 1163 There is only 1 preset (with 4 patterns in 'multi-clock').
;
#X obj 35 756 long-delay 1;
#X obj 303 759 simple-delay 2;
#X obj 575 760 simple-delay 3;
#X obj 850 759 simple-delay 4;
#X msg 793 97 \; pd dsp 1 \;;
#X msg 795 35 bang;
#X text 949 397 o Real x Rational;
#X msg 901 321 1;
#X obj 901 346 +;
#X obj 941 346 i;
#X obj 901 371 % 2;
#X floatatom 901 396 5 0 0 0 - - -;
#X floatatom 778 462 5 0 0 0 - - -;
#X obj 781 437 r teut;
#X obj 778 484 s BPM;
#X obj 878 34 t b b b b;
#N canvas 218 252 552 367 panner 1;
#X obj 19 35 inlet~ left;
#X obj 344 33 inlet~ right;
#X obj 17 249 outlet~ left;
#X obj 330 252 outlet~ right;
#X obj 167 62 expr $f1*0.5*3.14159;
#X floatatom 167 87 5 0 0 0 - - -;
#X obj 177 146 expr sin($f1);
#X obj 166 114 expr cos($f1);
#X obj 19 66 *~ 1;
#X obj 344 72 *~ 1;
#X floatatom 177 171 5 0 0 0 - - -;
#X obj 143 201 *~ 0;
#X obj 222 209 *~ 0;
#X obj 167 37 inlet;
#X floatatom 135 139 5 0 0 0 - - -;
#X connect 0 0 8 0;
#X connect 0 0 11 0;
#X connect 1 0 9 0;
#X connect 1 0 12 0;
#X connect 4 0 5 0;
#X connect 5 0 6 0;
#X connect 5 0 7 0;
#X connect 6 0 10 0;
#X connect 7 0 8 1;
#X connect 7 0 9 1;
#X connect 7 0 14 0;
#X connect 8 0 2 0;
#X connect 9 0 3 0;
#X connect 10 0 11 1;
#X connect 10 0 12 1;
#X connect 11 0 3 0;
#X connect 12 0 2 0;
#X connect 13 0 4 0;
#X restore 490 655 pd panner;
#X msg 923 194 LD1 LD2 FdBk RD1 RD2 BPM;
#X obj 923 219 print OLED labels;
#X obj 84 52 inlet~ inL;
#X obj 178 54 inlet~ inR;
#X obj 265 18 inlet;
#X obj 319 16 inlet;
#X obj 573 12 inlet;
#X obj 425 17 inlet;
#X obj 478 14 inlet;
#X obj 682 20 inlet;
#X obj 484 1044 outlet~ outL;
#X obj 578 1046 outlet~ outR;
#X obj 831 -5 bng 15 250 50 0 empty empty empty 17 7 0 10 -262144 -1
-1;
#X obj 1011 85 delay 1000;
#X obj 237 -7 hsl 128 15 0 1 0 0 empty empty empty -2 -8 0 10 -262144
-1 -1 0 1;
#X obj 1065 623 inlet;
#X msg 209 194 1;
#X msg 493 204 1;
#X obj 952 -12 loadbang;
#X text 570 -7 fb;
#X floatatom 1065 648 5 0 0 0 - - -;
#X floatatom 675 84 5 0 0 0 - - -;
#X msg 777 569 0.95;
#X obj 682 45 expr 30+$f1*300;
#X obj 671 152 change;
#X obj 671 208 s oscOut;
#X msg 671 180 /oled/line/5 \$1 BPM;
#X obj 589 256 change;
#X obj 589 312 s oscOut;
#X msg 589 284 /oled/line/5 Feedback \$1;
#X obj 1010 677 change;
#X obj 1010 733 s oscOut;
#X obj 949 596 inlet;
#X obj 1119 625 change;
#X obj 1119 681 s oscOut;
#X msg 1119 653 /oled/line/5 L-R mix \$1;
#X obj 947 627 expr 1- $f1;
#X msg 1010 705 /oled/line/5 Wet \$1;
#X connect 0 1 3 5;
#X connect 0 2 4 5;
#X connect 0 3 5 5;
#X connect 0 4 6 5;
#X connect 3 0 30 0;
#X connect 4 0 30 0;
#X connect 5 0 31 0;
#X connect 6 0 31 0;
#X connect 10 0 11 0;
#X connect 11 0 12 0;
#X connect 11 0 13 0;
#X connect 12 0 11 1;
#X connect 13 0 14 0;
#X connect 15 0 17 0;
#X connect 16 0 15 0;
#X connect 18 0 42 0;
#X connect 18 1 10 0;
#X connect 18 2 20 0;
#X connect 18 3 7 0;
#X connect 19 0 3 0;
#X connect 19 0 4 0;
#X connect 19 1 5 0;
#X connect 19 1 6 0;
#X connect 20 0 21 0;
#X connect 22 0 19 0;
#X connect 23 0 19 2;
#X connect 24 0 0 1;
#X connect 25 0 0 2;
#X connect 26 0 3 2;
#X connect 26 0 4 2;
#X connect 26 0 5 2;
#X connect 26 0 6 2;
#X connect 26 0 47 0;
#X connect 27 0 0 3;
#X connect 28 0 0 4;
#X connect 29 0 15 0;
#X connect 29 0 43 0;
#X connect 32 0 18 0;
#X connect 32 0 8 0;
#X connect 33 0 36 0;
#X connect 33 0 37 0;
#X connect 34 0 0 1;
#X connect 35 0 19 1;
#X connect 35 0 40 0;
#X connect 36 0 0 0;
#X connect 37 0 0 5;
#X connect 37 0 0 6;
#X connect 38 0 33 0;
#X connect 38 0 32 0;
#X connect 40 0 53 0;
#X connect 41 0 0 7;
#X connect 41 0 44 0;
#X connect 41 0 46 0;
#X connect 41 0 45 0;
#X connect 42 0 6 4;
#X connect 42 0 5 4;
#X connect 42 0 4 4;
#X connect 42 0 3 4;
#X connect 43 0 41 0;
#X connect 44 0 46 0;
#X connect 46 0 45 0;
#X connect 47 0 49 0;
#X connect 49 0 48 0;
#X connect 50 0 57 0;
#X connect 52 0 56 0;
#X connect 52 0 50 0;
#X connect 53 0 55 0;
#X connect 55 0 54 0;
#X connect 56 0 6 3;
#X connect 56 0 5 3;
#X connect 56 0 4 3;
#X connect 56 0 3 3;
#X connect 57 0 51 0;
