#N canvas 456 404 644 382 10;
#X obj 25 219 vsl 15 60 0 1 0 0 ttk1 empty empty 0 -9 0 10 -262144
-1 -1 3876 1;
#X obj 48 219 vsl 15 60 0 1 0 0 ttk2 empty empty 0 -9 0 10 -262144
-1 -1 1753 1;
#X obj 70 219 vsl 15 60 0 1 0 0 ttk3 empty empty 0 -9 0 10 -262144
-1 -1 5900 1;
#X obj 93 219 vsl 15 60 0 1 0 0 ttk4 empty empty 0 -9 0 10 -262144
-1 -1 2307 1;
#X obj 23 323 outlet;
#X obj 47 366 outlet;
#X obj 71 407 outlet;
#X obj 96 428 outlet;
#X obj 19 109 r knob1;
#X floatatom 19 132 5 0 0 0 - - -;
#X floatatom 89 133 5 0 0 0 - - -;
#X floatatom 157 136 5 0 0 0 - - -;
#X floatatom 219 135 5 0 0 0 - - -;
#X obj 89 110 r knob2;
#X obj 158 113 r knob3;
#X obj 219 112 r knob4;
#X obj 131 218 vsl 15 60 0 1 0 0 ttk1 empty empty 0 -9 0 10 -262144
-1 -1 1475 1;
#X obj 154 218 vsl 15 60 0 1 0 0 ttk2 empty empty 0 -9 0 10 -262144
-1 -1 738 1;
#X obj 176 218 vsl 15 60 0 1 0 0 ttk3 empty empty 0 -9 0 10 -262144
-1 -1 0 1;
#X obj 199 218 vsl 15 60 0 1 0 0 ttk4 empty empty 0 -9 0 10 -262144
-1 -1 0 1;
#X obj 283 110 r knob1;
#X floatatom 283 133 5 0 0 0 - - -;
#X floatatom 353 134 5 0 0 0 - - -;
#X floatatom 421 137 5 0 0 0 - - -;
#X floatatom 483 136 5 0 0 0 - - -;
#X obj 353 111 r knob2;
#X obj 422 114 r knob3;
#X obj 483 113 r knob4;
#X obj 340 206 r fs;
#X floatatom 340 229 5 0 0 0 - - -;
#X obj 283 160 spigot;
#X obj 353 160 spigot;
#X obj 422 161 spigot;
#X obj 481 160 spigot;
#X obj 340 273 == 1;
#X obj 386 275 == 0;
#X obj 111 219 tgl 15 0 empty empty empty 17 7 0 10 -262144 -1 -1 0
1;
#X obj 24 303 * 1;
#X obj 48 347 * 1;
#X obj 74 386 * 1;
#X obj 115 398 * 1;
#X obj 134 317 outlet;
#X obj 158 360 outlet;
#X obj 182 401 outlet;
#X obj 207 422 outlet;
#X obj 135 297 * 1;
#X obj 159 341 * 1;
#X obj 185 380 * 1;
#X obj 226 392 * 1;
#X obj 21 165 spigot;
#X obj 91 165 spigot;
#X obj 160 166 spigot;
#X obj 219 165 spigot;
#X text 112 202 fs four more knbs;
#X obj 181 -4 loadbang;
#X obj 181 19 t b b b b b b b b;
#X msg 115 53 0.25;
#X msg 155 53 0.35;
#X msg 202 53 0.75;
#X msg 242 53 0.66;
#X msg 282 53 0.25;
#X msg 325 53 0;
#X msg 358 52 0.5;
#X msg 400 49 0;
#X obj 124 -3 bng 15 250 50 0 empty empty empty 17 7 0 10 -262144 -1
-1;
#X msg 458 56 0;
#X connect 0 0 37 0;
#X connect 1 0 38 0;
#X connect 2 0 39 0;
#X connect 3 0 40 0;
#X connect 8 0 9 0;
#X connect 9 0 49 0;
#X connect 10 0 50 0;
#X connect 11 0 51 0;
#X connect 12 0 52 0;
#X connect 13 0 10 0;
#X connect 14 0 11 0;
#X connect 15 0 12 0;
#X connect 16 0 45 0;
#X connect 17 0 46 0;
#X connect 18 0 47 0;
#X connect 19 0 48 0;
#X connect 20 0 21 0;
#X connect 21 0 30 0;
#X connect 22 0 31 0;
#X connect 23 0 32 0;
#X connect 24 0 33 0;
#X connect 25 0 22 0;
#X connect 26 0 23 0;
#X connect 27 0 24 0;
#X connect 28 0 29 0;
#X connect 29 0 34 0;
#X connect 29 0 35 0;
#X connect 30 0 16 0;
#X connect 31 0 17 0;
#X connect 32 0 18 0;
#X connect 33 0 19 0;
#X connect 34 0 30 1;
#X connect 34 0 31 1;
#X connect 34 0 32 1;
#X connect 34 0 33 1;
#X connect 34 0 36 0;
#X connect 35 0 49 1;
#X connect 35 0 50 1;
#X connect 35 0 51 1;
#X connect 35 0 52 1;
#X connect 37 0 4 0;
#X connect 38 0 5 0;
#X connect 39 0 6 0;
#X connect 40 0 7 0;
#X connect 45 0 41 0;
#X connect 46 0 42 0;
#X connect 47 0 43 0;
#X connect 48 0 44 0;
#X connect 49 0 0 0;
#X connect 50 0 1 0;
#X connect 51 0 2 0;
#X connect 52 0 3 0;
#X connect 54 0 55 0;
#X connect 55 0 56 0;
#X connect 55 0 65 0;
#X connect 55 1 57 0;
#X connect 55 2 58 0;
#X connect 55 3 59 0;
#X connect 55 4 60 0;
#X connect 55 5 61 0;
#X connect 55 6 62 0;
#X connect 55 7 63 0;
#X connect 56 0 0 0;
#X connect 57 0 1 0;
#X connect 58 0 2 0;
#X connect 59 0 3 0;
#X connect 60 0 16 0;
#X connect 61 0 17 0;
#X connect 62 0 18 0;
#X connect 63 0 19 0;
#X connect 64 0 55 0;
#X connect 65 0 29 0;
#X coords 0 -1 1 1 200 90 1 20 200;
